<?xml version="1.0" encoding="utf-8"?>
<!-- Generator: Adobe Illustrator 17.1.0, SVG Export Plug-In . SVG Version: 6.00 Build 0)  -->
<!DOCTYPE svg PUBLIC "-//W3C//DTD SVG 1.1//EN" "http://www.w3.org/Graphics/SVG/1.1/DTD/svg11.dtd">
<svg version="1.1" id="Layer_1" xmlns="http://www.w3.org/2000/svg" xmlns:xlink="http://www.w3.org/1999/xlink" x="0px" y="0px"
	 viewBox="0 0 915.8 787.7" enable-background="new 0 0 915.8 787.7" xml:space="preserve">
<g>
	<g>
		<circle cx="216.6" cy="109.9" r="36"/>
	</g>
</g>
<g>
	<g>
		<circle cx="695.6" cy="109.9" r="36"/>
	</g>
</g>
<g>
	<g>
		<circle cx="216.6" cy="301.9" r="36"/>
	</g>
</g>
<g>
	<g>
		<circle cx="695.6" cy="301.9" r="36"/>
	</g>
</g>
<g>
	<g>
		<circle cx="288.6" cy="523.9" r="36"/>
	</g>
</g>
<g>
	<g>
		<circle cx="623.6" cy="523.9" r="36"/>
	</g>
</g>
<g>
	<g>
		<circle cx="456.1" cy="674.9" r="36"/>
	</g>
</g>
<g>
	<g>
		<circle cx="456.1" cy="109.9" r="36"/>
	</g>
</g>
<g>
	<g>
		<circle cx="456.1" cy="326.9" r="72"/>
	</g>
</g>
<g>
	<g>
		<rect x="174.7" y="205.9" transform="matrix(0.7411 0.6714 -0.6714 0.7411 233.7442 -169.2552)" width="323.2" height="25"/>
	</g>
	<g>
		<rect x="443.6" y="109.9" width="25" height="217"/>
	</g>
	<g>
		<rect x="216.6" y="97.4" width="239.5" height="25"/>
	</g>
	<g>
		<rect x="563.3" y="56.8" transform="matrix(0.6714 0.7411 -0.7411 0.6714 351.0591 -354.9479)" width="25" height="323.2"/>
	</g>
	<g>
		<rect x="456.1" y="97.4" width="239.5" height="25"/>
	</g>
	<g>
		<rect x="204.1" y="109.9" width="25" height="192"/>
	</g>
	<g>
		<rect x="215.9" y="301.9" transform="matrix(0.9946 0.1038 -0.1038 0.9946 34.461 -33.217)" width="240.8" height="25"/>
	</g>
	<g>
		<rect x="359.8" y="296.1" transform="matrix(0.7619 0.6477 -0.6477 0.7619 364.2334 -139.8525)" width="25" height="258.6"/>
	</g>
	<g>
		<rect x="135.9" y="400.4" transform="matrix(0.3085 0.9512 -0.9512 0.3085 567.4296 45.2912)" width="233.4" height="25"/>
	</g>
	<g>
		<rect x="259.6" y="586.9" transform="matrix(0.7427 0.6696 -0.6696 0.7427 497.1412 -95.0862)" width="225.5" height="25"/>
	</g>
	<g>
		<rect x="527.3" y="486.7" transform="matrix(0.6696 0.7427 -0.7427 0.6696 623.5728 -202.8801)" width="25" height="225.5"/>
	</g>
	<g>
		<rect x="647.1" y="296.2" transform="matrix(0.9512 0.3085 -0.3085 0.9512 159.562 -183.3381)" width="25" height="233.4"/>
	</g>
	<g>
		<rect x="563.3" y="194" transform="matrix(0.1038 0.9946 -0.9946 0.1038 828.7537 -290.9226)" width="25" height="240.8"/>
	</g>
	<g>
		<rect x="410.5" y="412.9" transform="matrix(0.6478 0.7618 -0.7618 0.6478 514.2505 -261.4024)" width="258.6" height="25"/>
	</g>
	<g>
		<rect x="683.1" y="106.6" width="25" height="195.3"/>
	</g>
	<g>
		<rect x="443.6" y="326.9" width="25" height="348"/>
	</g>
</g>
<g>
	<g>
		<path d="M76.4,314.3c0,23-2.7,40.3-8.1,51.8C62.8,377.6,53,386.8,39,393.7c24.9,11.3,37.4,38.5,37.4,81.6v142.6
			c0,52.9,16.9,79.4,50.7,79.4h5.4v14c-30.6,0-50.7-10.5-60.3-31.6c-7.2-15.7-10.9-42.4-10.9-80.1V472.3c0-22.5-2.4-38.8-7.2-48.9
			c-4.8-10-14.1-18.2-27.8-24.6V387c12.9-5.4,21.9-13.5,27.2-24.3c5.2-10.8,7.8-26.9,7.8-48.5V171.7c0-65.2,22.3-97.8,67-97.8h4.2
			v14c-20.9,2-35.5,8.5-43.8,19.5c-8.3,11-12.4,29.5-12.4,55.5V314.3z"/>
	</g>
</g>
<g>
	<g>
		<path d="M839.4,169.2c0-26-4.1-44.5-12.4-55.5c-8.2-11-22.8-17.5-43.8-19.5v-14h4.2c44.7,0,67,32.6,67,97.8v142.6
			c0,21.6,2.6,37.7,7.8,48.5c5.2,10.8,14.3,18.9,27.2,24.3v11.8c-13.7,6.4-22.9,14.6-27.8,24.6c-4.8,10-7.2,26.3-7.2,48.9v127.2
			c0,37.7-3.6,64.4-10.9,80.1c-9.7,21.1-29.8,31.6-60.3,31.6v-14h5.4c33.8,0,50.7-26.5,50.7-79.4V481.6c0-43.1,12.5-70.3,37.4-81.6
			c-14.1-6.9-23.8-16-29.3-27.6c-5.4-11.5-8.1-28.8-8.1-51.8V169.2z"/>
	</g>
</g>
</svg>
